#!OML:ASF I:\golf\golf\golf 2\Subject 1\2002-09-07\Subject1.ASF
:FULLY-SPECIFIED
:DEGREES
384
root -8.79923 18.0032 5.50959 -132.296 83.5055 -147.004
lowerback 5.0672 1.47473 0.243928
upperback 5.58228 2.13941 4.85598
thorax 2.75135 1.0888 4.84406
lowerneck -10.6069 4.08574 4.68677
upperneck 41.9902 11.0314 -6.63239
head 18.1892 5.16509 -1.69216
rclavicle -1.90833e-014 -4.6118e-014
rhumerus -20.0523 45.2451 -98.8815
rradius 56.4963
rwrist -64.1399
rhand -40.1584 -18.6133
rfingers 7.12502
rthumb -13.1204 -48.1806
lclavicle -1.90833e-014 -4.6118e-014
lhumerus -16.2793 -46.8731 106.427
lradius 53.2014
lwrist 63.9616
lhand -11.616 65.6798
lfingers 7.12502
lthumb -165.573 84.8417
rfemur -25.4492 -4.04647 15.1062
rtibia 25.1425
rfoot -7.66908 -9.77296
rtoes -3.18479
lfemur -28.8294 0.899645 -9.93105
ltibia 25.3977
lfoot -10.3474 -9.34541
ltoes -13.6067
385
root -8.79735 18.0034 5.51032 -132.825 83.5531 -147.563
lowerback 5.04345 1.57108 0.238276
upperback 5.54266 2.26416 4.74958
thorax 2.71623 1.1515 4.73076
lowerneck -10.6064 4.02482 4.89062
upperneck 42.0348 10.8869 -6.61489
head 18.2138 5.14429 -1.74759
rclavicle -2.98177e-014 -4.85035e-014
rhumerus -20.0782 44.8848 -98.92
rradius 56.4936
rwrist -64.0941
rhand -40.139 -18.6116
rfingers 7.12502
rthumb -13.1018 -48.18
lclavicle -2.98177e-014 -4.85035e-014
lhumerus -16.4545 -47.1392 106.539
lradius 53.1568
lwrist 63.9855
lhand -12.877 65.4908
lfingers 7.12502
lthumb -166.788 84.9478
rfemur -25.4784 -4.04712 15.0173
rtibia 25.1697
rfoot -7.70678 -9.77126
rtoes -2.90315
lfemur -28.8359 0.905133 -10.0197
ltibia 25.3613
lfoot -10.2664 -9.39265
ltoes -13.5352
386
root -8.79555 18.0018 5.51077 -133.353 83.5733 -148.116
lowerback 5.00785 1.56718 0.186936
upperback 5.53435 2.25526 4.71846
thorax 2.72741 1.14497 4.7284
lowerneck -10.615 4.0633 4.88072
upperneck 42.0232 10.923 -6.56356
head 18.2066 5.162 -1.71468
rclavicle -3.57812e-015 3.97569e-015
rhumerus -20.0763 44.9016 -98.9197
rradius 56.4927
rwrist -64.1204
rhand -40.1262 -18.6269
rfingers 7.12502
rthumb -13.0894 -48.1961
lclavicle -3.57812e-015 3.97569e-015
lhumerus -16.477 -47.0678 106.548
lradius 53.1062
lwrist 64.0127
lhand -11.653 65.6511
lfingers 7.12502
lthumb -165.609 84.8678
rfemur -25.5176 -4.06712 14.9545
rtibia 25.2123
rfoot -7.75767 -9.81008
rtoes -2.7043
lfemur -28.8212 0.831177 -10.0677
ltibia 25.3005
lfoot -10.2589 -9.3528
ltoes -13.2649
387
root -8.79394 18.0011 5.51074 -133.784 83.5481 -148.552
lowerback 5.01007 1.56813 0.231252
upperback 5.51844 2.25705 4.67005
thorax 2.71253 1.14777 4.65176
lowerneck -10.6013 4.08833 4.91527
upperneck 42.024 10.9246 -6.49759
head 18.1988 5.17628 -1.69016
rclavicle -3.02153e-014 -5.88403e-014
rhumerus -20.075 44.8476 -98.9586
rradius 56.5088
rwrist -64.1975
rhand -40.1766 -18.656
rfingers 7.12502
rthumb -13.138 -48.2221
lclavicle -3.02153e-014 -5.88403e-014
lhumerus -16.5294 -47.1708 106.492
lradius 53.1699
lwrist 64.2806
lhand -12.8942 65.4202
lfingers 7.12502
lthumb -166.805 85.0174
rfemur -25.5325 -4.11524 14.9324
rtibia 25.2566
rfoot -7.76472 -9.8317
rtoes -3.05696
lfemur -28.7956 0.748527 -10.0754
ltibia 25.2418
lfoot -10.2733 -9.31352
ltoes -13.2125
388
root -8.79283 18.0026 5.51095 -134.385 83.5021 -149.149
lowerback 5.00654 1.57406 0.27898
upperback 5.5092 2.26537 4.6131
thorax 2.70775 1.15395 4.56452
lowerneck -10.5635 4.08505 5.03023
upperneck 42.0253 10.8952 -6.50339
head 18.1954 5.18417 -1.72004
rclavicle -5.1684e-015 -2.94201e-014
rhumerus -20.0637 44.7437 -99.0011
rradius 56.5398
rwrist -64.2567
rhand -40.2825 -18.7416
rfingers 7.12502
rthumb -13.2401 -48.3011
lclavicle -5.1684e-015 -2.94201e-014
lhumerus -16.5648 -47.2427 106.462
lradius 53.2009
lwrist 64.3379
lhand -10.6901 65.5466
lfingers 7.12502
lthumb -164.681 85.0408
rfemur -25.5241 -4.15879 14.9037
rtibia 25.2908
rfoot -7.60655 -9.86803
rtoes -4.52954
lfemur -28.7877 0.703895 -10.1035
ltibia 25.2009
lfoot -10.254 -9.34125
ltoes -13.3142
389
root -8.79202 18.0037 5.5118 -134.528 83.4336 -149.293
lowerback 4.98418 1.57777 0.32233
upperback 5.50486 2.27094 4.60556
thorax 2.71705 1.15819 4.53257
lowerneck -10.5353 4.07291 5.0641
upperneck 42.0224 10.8718 -6.50614
head 18.1862 5.1818 -1.73254
rclavicle 1.07344e-014 -1.59028e-015
rhumerus -20.091 44.7218 -99.0059
rradius 56.5832
rwrist -64.257
rhand -40.3245 -18.7868
rfingers 7.12502
rthumb -13.2806 -48.3437
lclavicle 1.07344e-014 -1.59028e-015
lhumerus -16.5924 -47.3017 106.503
lradius 53.2161
lwrist 64.1188
lhand -10.3323 65.721
lfingers 7.12502
lthumb -164.336 84.893
rfemur -25.5269 -4.22971 14.9629
rtibia 25.3107
rfoot -7.46644 -9.88838
rtoes -5.72436
lfemur -28.7928 0.697397 -10.0777
ltibia 25.1699
lfoot -10.231 -9.38141
ltoes -13.3554
